# ProBuilder 5.0.4
# https://unity3d.com/unity/features/worldbuilding/probuilder
# 5/28/2022 11:11:18 AM

mtllib ./Splinter_-_Long.mtl
o Splinter - Long

g Splinter - Long
v 0.5 -0.01177876 0.5
v 0.03951454 -0.01177877 0.09830666
v 0.5 0.0117787 0.5
v 0.03951454 0.01177869 0.09830666
v -0.1409845 -0.01177876 -0.1713696
v 0.1543499 -0.01177876 0.0393486
v 0.4056442 -0.01177876 0.03565407
v 0.4056442 -0.00672653 0.03565407
v 0.4056442 0.01177873 0.00530815
v 0.1543499 0.01177873 0.03935051
v 0.1543499 -0.006726533 0.03935051
v -0.1409845 0.01177876 -0.1713696
v -0.1409845 -0.006726533 -0.1713696

vt 0.7054685 -0.01177876
vt 0.09440026 -0.01177877
vt 0.7054685 0.0117787
vt 0.09440026 0.01177869
vt 0.03953337 0.09827559
vt 0.03949561 0.09833737
vt -0.1409655 -0.1714004
vt 0.1543685 0.03931823
vt 0.4056625 0.03562476
vt 0.4056248 0.00534072
vt -0.1410032 -0.1713387
vt -0.1137497 0.04318967
vt -0.5875793 0.04352434
vt -0.5875793 0.06684884
vt -0.08398147 0.06734093
vt -0.1137497 0.04819195
vt -0.5 0.5
vt -0.03951454 0.09830666
vt 0.1409845 -0.1713696
vt -0.1543499 0.03935051
vt -0.4056442 0.005308148
vt 0.5 0.5

vn -0.6573625 0 0.7535746
vn -0.831032 0 0.5562245
vn 0.1101966 0.0001024404 -0.3572841
vn 0.1838002 0.0002282687 -0.9379411
vn -0.01470043 0 -0.9998919
vn -0.02861799 -0.2128206 -0.8797567
vn -0.07035549 -0.8516598 -0.5193512
vn 0.1652497 -0.2838866 -0.77776
vn 0.3823052 0.0001141344 -0.8759892
vn -0.2662942 0 0.008119846
vn 0.9799727 0 -0.199132
vn 0.9594727 -0.146846 -0.1891142
vn 0.9389726 -0.2936919 -0.1790964
vn 0.966306 -0.0978973 -0.1924535
vn -1.331271E-07 1 2.074798E-07
vn 1.466266E-08 -1 -1.100214E-08

usemtl ProBuilderDefault
f 3/14/12 8/16/14 9/15/13
f 1/13/11 8/16/14 3/14/12
f 1/13/11 7/12/11 8/16/14
f 3/17/15 9/21/15 10/20/15
f 3/17/15 10/20/15 12/19/15
f 3/17/15 12/19/15 4/18/15
f 2/5/16 5/7/16 1/22/16
f 5/7/16 6/8/16 1/22/16
f 6/8/16 7/9/16 1/22/16
f 9/10/7 8/9/6 10/8/8
f 8/9/6 11/8/9 10/8/8
f 6/8/4 11/8/9 8/9/6
f 7/9/5 6/8/4 8/9/6
f 10/8/8 11/8/9 12/11/3
f 11/8/9 13/7/10 12/11/3
f 5/7/3 13/7/10 11/8/9
f 6/8/4 5/7/3 11/8/9
f 13/7/10 5/7/3 2/5/2
f 4/6/2 13/7/10 2/5/2
f 12/11/3 13/7/10 4/6/2
f 4/4/1 2/2/1 1/1/1
f 1/1/1 3/3/1 4/4/1

